<?xml version="1.0" encoding="UTF-8"?>
<svg width="61px" height="61px" viewBox="0 0 61 61" version="1.1" xmlns="http://www.w3.org/2000/svg" xmlns:xlink="http://www.w3.org/1999/xlink">
    <!-- Generator: Sketch 50.2 (55047) - http://www.bohemiancoding.com/sketch -->
    <title>Shape</title>
    <desc>Created with Sketch.</desc>
    <defs></defs>
    <g id="Final" stroke="none" stroke-width="1" fill="none" fill-rule="evenodd">
        <g id="final_music_festival_171024-copy" transform="translate(-347.000000, -3305.000000)" fill="#666666">
            <g id="footer" transform="translate(279.000000, 3269.000000)">
                <g id="Group-6" transform="translate(0.000000, 6.000000)">
                    <g id="instagram" transform="translate(38.000000, 0.000000)">
                        <path d="M60.4615385,36 C68.4286029,36 69.3722238,36.0303209 72.5184953,36.1738717 C75.4276475,36.3066442 77.0075344,36.7927268 78.0590552,37.2012304 C79.4516866,37.7425066 80.4457634,38.3891955 81.4898224,39.4332545 C82.5338814,40.4773135 83.1805703,41.4713903 83.721728,42.8640217 C84.1303501,43.9155425 84.6164327,45.4954294 84.7492053,48.4044632 C84.892756,51.5508532 84.9230769,52.494474 84.9230769,60.4615385 C84.9230769,68.4286029 84.892756,69.3722238 84.7492053,72.5184953 C84.6164327,75.4276475 84.1303501,77.0075344 83.721728,78.0590552 C83.1805703,79.4516866 82.5338814,80.4457634 81.4898224,81.4898224 C80.4457634,82.5338814 79.4516866,83.1805703 78.0590552,83.721728 C77.0075344,84.1303501 75.4276475,84.6164327 72.5184953,84.7492053 C69.3726975,84.892756 68.4290766,84.9230769 60.4615385,84.9230769 C52.4940003,84.9230769 51.5503794,84.892756 48.4045817,84.7492053 C45.4954294,84.6164327 43.9155425,84.1303501 42.8641401,83.721728 C41.4713903,83.1805703 40.4773135,82.5338814 39.4332545,81.4898224 C38.3891955,80.4457634 37.7425066,79.4516866 37.2013489,78.0590552 C36.7927268,77.0075344 36.3066442,75.4276475 36.1738717,72.5186137 C36.0303209,69.3722238 36,68.4286029 36,60.4615385 C36,52.494474 36.0303209,51.5508532 36.1738717,48.4045817 C36.3066442,45.4954294 36.7927268,43.9155425 37.2013489,42.8640217 C37.7425066,41.4713903 38.3891955,40.4773135 39.4332545,39.4332545 C40.4773135,38.3891955 41.4713903,37.7425066 42.8641401,37.2012304 C43.9155425,36.7927268 45.4954294,36.3066442 48.4044632,36.1738717 C51.5508532,36.0303209 52.494474,36 60.4615385,36 M60.4614789,30.4615385 C68.6090493,30.4615385 69.6306811,30.4960732 72.830381,30.6420716 C76.0236503,30.7878319 78.2043383,31.2948966 80.1126784,32.0365592 C82.0854436,32.8032296 83.7584714,33.8290294 85.4262595,35.4968174 C87.0940475,37.1646055 88.1198473,38.8376333 88.8865178,40.8103985 C89.6281803,42.7187386 90.135245,44.8994266 90.2810053,48.0926959 C90.4270038,51.2923958 90.4615385,52.3140276 90.4615385,60.461598 C90.4615385,68.6091684 90.4270038,69.6308002 90.2810053,72.8305001 C90.135245,76.0237694 89.6281803,78.2044574 88.8865178,80.1127975 C88.1198473,82.0855627 87.0940475,83.7585905 85.4262595,85.4263786 C83.7584714,87.0941666 82.0854436,88.1199664 80.1126784,88.8866369 C78.2043383,89.6282994 76.0236503,90.1353641 72.830381,90.2811244 C69.6306811,90.4271228 68.6090493,90.4615385 60.4614789,90.4615385 C52.3139086,90.4615385 51.2923958,90.4271228 48.0925768,90.2811244 C44.8993075,90.1353641 42.7186196,89.6282994 40.8102794,88.8866369 C38.8375142,88.1199664 37.1644864,87.0941666 35.4966984,85.4263786 C33.8289103,83.7585905 32.8031105,82.0854436 32.0364401,80.1127975 C31.2947775,78.2044574 30.7877128,76.0237694 30.6419525,72.8305001 C30.4959541,69.6308002 30.4615385,68.6091684 30.4615385,60.461598 C30.4615385,52.3140276 30.4959541,51.2923958 30.6419525,48.0926959 C30.7877128,44.8994266 31.2947775,42.7187386 32.0364401,40.8103985 C32.8031105,38.8376333 33.8289103,37.1646055 35.4966984,35.4968174 C37.1644864,33.8290294 38.8375142,32.8032296 40.8102794,32.0365592 C42.7186196,31.2948966 44.8993075,30.7878319 48.0925768,30.6420716 C51.2923958,30.4960732 52.3139086,30.4615385 60.4614789,30.4615385 Z M60.4615385,45.2307692 C52.0498542,45.2307692 45.2307692,52.0498542 45.2307692,60.4615385 C45.2307692,68.8732228 52.0498542,75.6923077 60.4615385,75.6923077 C68.8732228,75.6923077 75.6923077,68.8732228 75.6923077,60.4615385 C75.6923077,52.0498542 68.8732228,45.2307692 60.4615385,45.2307692 Z M60.9230769,71.0769231 C55.3153302,71.0769231 50.7692308,66.5308236 50.7692308,60.9230769 C50.7692308,55.3153302 55.3153302,50.7692308 60.9230769,50.7692308 C66.5308236,50.7692308 71.0769231,55.3153302 71.0769231,60.9230769 C71.0769231,66.5308236 66.5308236,71.0769231 60.9230769,71.0769231 Z M80.3076923,44.3076312 C80.3076923,42.268407 78.65467,40.6153846 76.6154457,40.6153846 C74.5762214,40.6153846 72.9230769,42.268407 72.9230769,44.3076312 C72.9230769,46.3468555 74.5762214,48 76.6154457,48 C78.65467,48 80.3076923,46.3468555 80.3076923,44.3076312 Z" id="Shape"></path>
                    </g>
                </g>
            </g>
        </g>
    </g>
</svg>