<svg id="Layer_1" data-name="Layer 1" xmlns="http://www.w3.org/2000/svg" viewBox="0 0 170.67 53.09"><defs><style>.cls-1{fill:#7f7f7f;}.cls-2{font-size:53.15px;fill:#919191;font-family:NoyhRThin, Noyh R Thin;letter-spacing:-0.04em;}</style></defs><title>midgray_logo-2018</title><ellipse class="cls-1" cx="71.54" cy="88.07" rx="9.43" ry="3.84" transform="translate(-40.56 64.34) rotate(-68.33)"/><text class="cls-2" transform="translate(0 41.67)">MID</text><path d="M92.4,103.23V94.67H86.18a.69.69,0,1,1,0-1.38h6.91a.7.7,0,0,1,.69.69v13.13c0,.1,0,.32-.37.32a.44.44,0,0,1-.37-.32l-.53-2.5c-2.66,2.29-6.11,3.08-10,3.08a15.41,15.41,0,1,1-.06-30.82,17,17,0,0,1,8.83,2.44.65.65,0,0,1,.26.53.6.6,0,0,1-.64.59.5.5,0,0,1-.26-.05,14.69,14.69,0,0,0-22.32,12,14,14,0,0,0,14.13,14.08C85.87,106.47,89.8,105.62,92.4,103.23Z" transform="translate(-3.85 -57.7)"/><path d="M112.44,95H101v11.75a.69.69,0,1,1-1.38,0V77.93a.7.7,0,0,1,.69-.69h12.33c5,0,8.45,3.72,8.45,9.09,0,5.1-2.71,8.18-7.12,8.61l5.79,11.48a.59.59,0,0,1,.06.32.72.72,0,0,1-.75.69.7.7,0,0,1-.64-.43Zm0-1.38c3.88,0,7.28-1.54,7.28-7.23s-3.4-7.76-7.28-7.76H101v15Z" transform="translate(-3.85 -57.7)"/><path d="M147.89,98.6l-8.4-18.92L131,98.6,130.4,100l-3.13,7.12a.72.72,0,0,1-.64.32.73.73,0,0,1-.75-.75l13.18-29.44a.49.49,0,0,1,.43-.27.46.46,0,0,1,.42.27l13.18,29.44a.76.76,0,0,1-1.38.43L148.52,100Z" transform="translate(-3.85 -57.7)"/><path d="M163.09,106.74a.7.7,0,0,1-1.39,0V96.16L150.38,78.25a.79.79,0,0,1-.1-.32.63.63,0,0,1,.64-.69.69.69,0,0,1,.63.32l10.84,17.17,10.85-17.17a.69.69,0,0,1,.63-.32.63.63,0,0,1,.64.69.79.79,0,0,1-.1.32L163.09,96.16Z" transform="translate(-3.85 -57.7)"/></svg>