<?xml version="1.0" encoding="UTF-8"?>
<svg width="62px" height="53px" viewBox="0 0 62 53" version="1.1" xmlns="http://www.w3.org/2000/svg" xmlns:xlink="http://www.w3.org/1999/xlink">
    <!-- Generator: Sketch 50.2 (55047) - http://www.bohemiancoding.com/sketch -->
    <title>Shape</title>
    <desc>Created with Sketch.</desc>
    <defs></defs>
    <g id="Final" stroke="none" stroke-width="1" fill="none" fill-rule="evenodd">
        <g id="final_music_festival_171024-copy" transform="translate(-1035.000000, -3484.000000)" fill="#666666">
            <g id="footer" transform="translate(279.000000, 3269.000000)">
                <g id="back-to-top-button" transform="translate(282.000000, 0.000000)">
                    <g id="twitter" transform="translate(57.000000, 0.000000)">
                        <path d="M471.696249,223.379099 C474.323707,221.72548 476.33979,219.103423 477.285966,215.979922 C474.825908,217.514878 472.107472,218.624946 469.207079,219.225914 C466.892587,216.622996 463.58461,215 459.923637,215 C452.9001,215 447.208487,220.990539 447.208487,228.378232 C447.208487,229.427055 447.314022,230.449083 447.532371,231.425177 C436.964313,230.866315 427.593532,225.545645 421.316018,217.445977 C420.220637,219.428788 419.594706,221.72548 419.594706,224.175285 C419.594706,228.814603 421.840054,232.910371 425.253566,235.314242 C423.168339,235.245342 421.206844,234.636718 419.489171,233.641485 L419.489171,233.806081 C419.489171,240.290409 423.870693,245.699119 429.696954,246.924021 C428.627047,247.237903 427.506192,247.394843 426.341668,247.394843 C425.522862,247.394843 424.722252,247.314459 423.950754,247.157518 C425.566532,252.470533 430.264659,256.344287 435.832541,256.447638 C431.476492,260.038134 425.992311,262.174057 420.035041,262.174057 C419.008804,262.174057 417.993485,262.11664 417,261.990322 C422.629747,265.783692 429.314844,268 436.498503,268 C459.898163,268 472.686095,247.613029 472.686095,229.932327 C472.686095,229.350498 472.678817,228.772497 472.653343,228.202152 C475.138874,226.315037 477.300522,223.9571 479,221.273797 C476.71826,222.337932 474.265481,223.057562 471.696249,223.379099 Z" id="Shape"></path>
                    </g>
                </g>
            </g>
        </g>
    </g>
</svg>